<?xml version="1.0" encoding="UTF-8"?>
<svg xmlns="http://www.w3.org/2000/svg" xmlns:xlink="http://www.w3.org/1999/xlink" width="24px" height="24px" viewBox="0 0 24 24" version="1.1">
<g id="surface1">
<path style=" stroke:none;fill-rule:nonzero;fill:rgb(0%,0%,0%);fill-opacity:1;" d="M 9.566406 4.660156 C 8.160156 4.886719 6.992188 5.640625 6.191406 6.847656 C 5.691406 7.585938 5.472656 8.378906 5.464844 9.40625 C 5.464844 10.78125 5.894531 11.828125 6.867188 12.808594 C 7.347656 13.292969 7.535156 13.425781 8.066406 13.6875 C 8.941406 14.105469 9.492188 14.226562 10.460938 14.179688 C 11.320312 14.148438 11.792969 14.019531 12.519531 13.632812 C 12.765625 13.507812 12.992188 13.398438 13.027344 13.398438 C 13.066406 13.398438 14 14.300781 15.101562 15.398438 L 17.105469 17.398438 L 17.414062 17.398438 C 17.941406 17.398438 18.3125 16.945312 18.21875 16.425781 C 18.191406 16.285156 17.648438 15.691406 16.171875 14.214844 C 14.320312 12.347656 14.171875 12.1875 14.253906 12.058594 C 15.148438 10.632812 15.273438 8.90625 14.601562 7.425781 C 14.019531 6.148438 12.886719 5.179688 11.519531 4.800781 C 10.964844 4.648438 10.058594 4.578125 9.566406 4.660156 Z M 10.886719 6.300781 C 12.378906 6.613281 13.398438 7.867188 13.414062 9.398438 C 13.421875 10.6875 12.738281 11.753906 11.546875 12.320312 C 11.09375 12.539062 10.964844 12.566406 10.394531 12.585938 C 9.898438 12.605469 9.660156 12.585938 9.386719 12.5 C 8.414062 12.179688 7.808594 11.671875 7.386719 10.820312 C 7.121094 10.292969 7.101562 10.207031 7.078125 9.59375 C 7.054688 9.066406 7.078125 8.851562 7.191406 8.488281 C 7.519531 7.40625 8.445312 6.546875 9.546875 6.308594 C 10.101562 6.1875 10.339844 6.179688 10.886719 6.300781 Z M 10.886719 6.300781 "/>
</g>
</svg>
